<?xml version="1.0" encoding="UTF-8"?>
<!-- Generated by Pixelmator Pro 3.8 -->
<svg width="1080" height="1080" viewBox="0 0 1080 1080" xmlns="http://www.w3.org/2000/svg">
    <path id="Full-circle-white" fill="#ffffff" fill-rule="evenodd" stroke="none" d="M 1080 540 C 1080 241.766235 838.233765 0 540 0 C 241.766235 0 0 241.766235 0 540 C 0 838.233765 241.766235 1080 540 1080 C 838.233765 1080 1080 838.233765 1080 540 Z"/>
    <g id="Group">
        <path id="Circle-1" fill="#000000" fill-rule="evenodd" stroke="none" d="M 281.076416 758.559814 C 281.031128 740.36145 266.24176 725.645447 248.043335 725.690735 C 229.844986 725.735962 215.129013 740.525391 215.174286 758.723755 C 215.219559 776.922119 230.008926 791.638062 248.207275 791.592834 C 266.40567 791.547546 281.121674 776.758179 281.076416 758.559814 Z"/>
        <path id="Circle-2" fill="#000000" fill-rule="evenodd" stroke="none" d="M 426.674103 758.197571 C 426.628815 739.999268 411.839447 725.283264 393.641052 725.328491 C 375.442719 725.373779 360.726685 740.163208 360.771973 758.361572 C 360.81723 776.559937 375.606659 791.275879 393.805023 791.230591 C 412.003387 791.185364 426.71936 776.395996 426.674103 758.197571 Z"/>
        <path id="Circle-3" fill="#000000" fill-rule="evenodd" stroke="none" d="M 572.27179 757.835449 C 572.226563 739.637024 557.437073 724.921021 539.23877 724.966309 C 521.040405 725.011597 506.324402 739.800964 506.36969 757.999329 C 506.414948 776.197693 521.204407 790.913696 539.40271 790.868408 C 557.601135 790.823181 572.317139 776.033813 572.27179 757.835449 Z"/>
        <path id="Circle-4" fill="#000000" fill-rule="evenodd" stroke="none" d="M 719.402161 757.469421 C 719.356873 739.271057 704.567444 724.555054 686.369141 724.600281 C 668.170715 724.645569 653.454712 739.434998 653.5 757.633362 C 653.545288 775.831787 668.334595 790.547729 686.53302 790.502441 C 704.731445 790.457153 719.447388 775.667786 719.402161 757.469421 Z"/>
        <path id="Circle-5" fill="#000000" fill-rule="evenodd" stroke="none" d="M 864.999878 757.107178 C 864.95459 738.908875 850.165161 724.192871 831.966736 724.238159 C 813.768433 724.283447 799.052551 739.072815 799.097717 757.271179 C 799.143005 775.469543 813.932373 790.185547 832.130798 790.140259 C 850.329041 790.094971 865.045166 775.305603 864.999878 757.107178 Z"/>
    </g>
    <path id="a" fill="#000000" fill-rule="evenodd" stroke="none" d="M 577.692993 524.851013 C 577.692993 498.449097 577.846558 478.340942 578.153503 464.52594 C 578.46051 450.710938 578.614014 438.584717 578.614014 428.146729 C 565.720032 435.514709 552.058777 441.501099 537.629822 446.106079 C 523.200867 450.71106 510.000061 456.543945 498.0271 463.60498 C 486.054138 470.665894 476.230286 480.336304 468.555298 492.616211 C 460.880341 504.89624 457.042908 522.701904 457.042908 546.033813 C 457.042908 568.751831 461.801331 586.097046 471.318298 598.069946 C 480.835266 610.042969 493.575562 616.029297 509.53952 616.029297 C 529.801453 616.029297 546.225708 608.354492 558.812622 593.004517 C 571.399658 577.654541 577.692993 554.936951 577.692993 524.851013 Z M 359.417603 274.34082 C 385.205566 253.464905 412.988586 237.50116 442.767517 226.449158 C 472.546448 215.397217 502.171417 209.871277 531.643372 209.871277 C 556.203308 209.871277 578.767395 212.634277 599.336365 218.160217 C 619.905273 223.686218 637.710999 232.435608 652.753967 244.408569 C 667.796936 256.381531 679.462769 271.884766 687.751709 290.918701 C 696.04071 309.952698 700.18512 332.977295 700.18512 359.993225 C 700.18512 399.289124 699.724609 435.667969 698.80365 469.13092 C 697.882629 502.593872 697.422119 535.902771 697.422119 569.058716 C 697.422119 583.794678 698.496643 595.306946 700.64563 603.595947 C 702.794617 611.884888 706.018066 618.178345 710.31604 622.476318 C 714.614014 626.774292 720.293457 629.537231 727.354431 630.765259 C 734.415405 631.993225 742.550781 632.607178 751.760742 632.607178 L 751.760742 654.71106 C 733.954834 662.079041 718.912048 667.60498 706.63208 671.28894 C 694.352112 674.9729 681.151367 676.814941 667.029358 676.814941 C 644.311401 676.814941 625.891724 671.289001 611.769775 660.237061 C 597.647827 649.185059 586.902954 633.221313 579.535034 612.345337 C 565.413025 631.993286 548.988831 647.650024 530.261841 659.31604 C 511.534912 670.981995 488.049805 676.814941 459.805878 676.814941 C 436.473938 676.814941 416.519287 673.744995 399.941315 667.60498 C 383.363342 661.464966 369.702087 652.715637 358.957123 641.356689 C 348.212128 629.997681 340.383789 617.103882 335.471771 602.674927 C 330.559784 588.245972 328.103851 573.663696 328.103851 558.927734 C 328.103851 538.665771 331.327271 521.167114 337.774261 506.431152 C 344.221252 491.69519 353.431091 479.108398 365.404053 468.67041 C 377.377045 458.232422 391.652283 449.483093 408.230255 442.422119 C 424.808228 435.361084 443.534912 429.374756 464.410828 424.462769 C 490.198792 418.322754 510.613953 412.950317 525.656921 408.345337 C 540.699829 403.740356 551.905151 399.135437 559.273132 394.530457 C 566.641113 389.925476 571.399536 384.860046 573.548584 379.334045 C 575.69751 373.808105 576.772034 367.054199 576.772034 359.072205 C 576.772034 336.968262 568.943665 318.088074 553.286682 302.431152 C 537.629761 286.77417 515.986572 278.945801 488.356689 278.945801 C 477.918701 278.945801 467.173889 280.327271 456.121887 283.090271 C 445.069946 285.853271 434.478607 289.690674 424.347656 294.602661 C 414.216675 299.514648 405.006836 304.887085 396.717834 310.720093 C 388.428864 316.55304 382.135468 322.846436 377.837463 329.600403 L 371.390533 329.600403 Z"/>
</svg>
